<svg width="23" height="23" viewBox="0 0 23 23" fill="none" xmlns="http://www.w3.org/2000/svg">
<circle cx="11.5" cy="11.5" r="11.5" fill="#2596E7"/>
<path d="M9.93 15V7.7H12C12.6667 7.7 13.1867 7.86667 13.56 8.2C13.94 8.53333 14.13 8.99667 14.13 9.59C14.13 9.92333 14.06 10.2133 13.92 10.46C13.78 10.7067 13.58 10.8967 13.32 11.03C13.0667 11.1633 12.76 11.2267 12.4 11.22V11.07C12.7867 11.0633 13.12 11.1367 13.4 11.29C13.6867 11.4433 13.9067 11.6633 14.06 11.95C14.22 12.2367 14.3 12.5767 14.3 12.97C14.3 13.3833 14.2133 13.7433 14.04 14.05C13.8667 14.3567 13.62 14.5933 13.3 14.76C12.98 14.92 12.5967 15 12.15 15H9.93ZM10.81 14.19H12.05C12.47 14.19 12.8 14.08 13.04 13.86C13.2867 13.6333 13.41 13.3267 13.41 12.94C13.41 12.54 13.2867 12.2167 13.04 11.97C12.8 11.7167 12.47 11.59 12.05 11.59H10.81V14.19ZM10.81 10.81H11.99C12.3767 10.81 12.68 10.7067 12.9 10.5C13.1267 10.2933 13.24 10.0133 13.24 9.66C13.24 9.30667 13.13 9.02667 12.91 8.82C12.69 8.61333 12.3867 8.51 12 8.51H10.81V10.81Z" fill="black"/>
</svg>
